<svg version="1.0" xmlns="http://www.w3.org/2000/svg" width="352" height="352" viewBox="0 0 264 264"><path d="M73 45.5c-3.7 1.7-10 7.2-10 8.9 0 .5.8.2 1.8-.6 2.8-2.5 7.9-4.8 10.7-4.8 4.3 0 12 4.6 16.9 10.2 2.5 2.9 4.6 4.9 4.6 4.5 0-2.3-5.7-12-9-15.2-4.4-4.3-9.6-5.4-15-3zm108.4.7c-4.2 3.2-5.2 4.6-8.6 11.6-3.3 6.9-3.3 9.3.1 3.8 3-4.9 9.2-10.2 13.6-11.6 4.8-1.6 9.8-.7 14.8 2.6l4 2.6-2.2-3.1c-5.3-7.4-16-10.3-21.7-5.9zM63.5 74.8c-14.1 2.8-20.1 7.9-17.8 14.8 1.7 5.2 4.4 5.4 15.8 1 1.8-.6 9.5-1.1 19-1.1 13.1 0 17.9.4 26.4 2.3 10.3 2.3 10.4 2.3 13 .4 3-2.2 3.8-5.6 2-7.8-.7-.9-3.5-2.7-6.2-4-12.7-6.5-35.5-8.9-52.2-5.6zm38 1.9c12.7 2.9 21.3 8.1 20.1 12.1-1.2 3.5-4.3 4-13.5 1.8-6.8-1.5-12.4-2-26.4-2L64 88.5l.5-2.7c.6-2.7-.8-6.7-2.9-8-1.4-.9.5-1.6 7.9-2.8 7.7-1.2 22.9-.4 32 1.7zM52.2 90.2c1 .6 1 1-.2 1.8-2.1 1.4-3.3.8-4.9-2.4-1-2.3-1.1-3.4-.1-5.5l1.2-2.6 1.3 3.9c.8 2.1 2 4.3 2.7 4.8zm119.3-16.1c-2.2.5-5.6 1.2-7.5 1.5-3.3.6-10.6 4.7-12.2 6.9-1.6 2.2-.8 7.2 1.6 9.4 2.6 2.5 4.1 2.3 14.1-1.8 6-2.4 25.5-1.9 42.5 1.2 15.2 2.8 17.3 2.4 17.8-3.2.2-2.3-.3-3.7-2.3-5.5-2.8-2.6-13.9-6.6-23.3-8.5-6.2-1.3-24.9-1.3-30.7 0zm30.1 1.4c16.3 3.1 25.4 7.4 25.4 12 0 4.8-1.9 5.1-17.3 2.4-10.1-1.7-18-2.4-27.2-2.4h-13.1l.4-2.7c.2-1.6-.3-3.9-1.3-5.4-.9-1.4-1.5-2.7-1.3-2.9.2-.2 2.6-.8 5.3-1.3 7.7-1.5 20.5-1.4 29.1.3zM155 84.7c0 1.5.9 3.7 2.1 4.9 1.7 1.8 1.8 2.2.5 2.7-1.9.7-5.6-2.9-5.6-5.4 0-2.5 1.1-4.9 2.1-4.9.5 0 .9 1.2.9 2.7zm-94.9 62.9c0 1.1.3 1.4.6.6.3-.7.2-1.6-.1-1.9-.3-.4-.6.2-.5 1.3zm149 0c0 1.1.3 1.4.6.6.3-.7.2-1.6-.1-1.9-.3-.4-.6.2-.5 1.3zm-147.5 5.1c.3 1.6 2.6 6.9 5.1 11.9 9.5 19.3 26.2 32.5 48.8 38.5 11.2 3 27.9 3 39 0 16.8-4.5 31.8-13.7 41.3-25.4 5.4-6.7 11.5-18.6 12.6-24.7.4-2.4-.1-1.6-1.8 2.6-8.2 20.7-25.2 35.3-48.5 41.6-6.2 1.7-10.5 2.1-23.1 2.1-14 0-16.4-.2-24.5-2.7-12.1-3.7-21.3-8.8-29.6-16.4-7.1-6.6-14.3-17.2-17.4-25.5-2-5.2-2.9-6.2-1.9-2z"/></svg>