<?xml version="1.0" standalone="no"?>
<!DOCTYPE svg PUBLIC "-//W3C//DTD SVG 20010904//EN"
 "http://www.w3.org/TR/2001/REC-SVG-20010904/DTD/svg10.dtd">
<svg version="1.0" xmlns="http://www.w3.org/2000/svg"
 width="264.000000pt" height="264.000000pt" viewBox="0 0 264.000000 264.000000"
 preserveAspectRatio="xMidYMid meet">
<metadata>
Created by potrace 1.11, written by Peter Selinger 2001-2013
</metadata>
<g transform="translate(0.000000,264.000000) scale(0.100000,-0.100000)"
fill="#000000" stroke="none">
<path d="M730 2185 c-37 -17 -100 -72 -100 -89 0 -5 8 -2 18 6 28 25 79 48
107 48 43 0 120 -46 169 -102 25 -29 46 -49 46 -45 0 23 -57 120 -90 152 -44
43 -96 54 -150 30z"/>
<path d="M1814 2178 c-42 -32 -52 -46 -86 -116 -33 -69 -33 -93 1 -38 30 49
92 102 136 116 48 16 98 7 148 -26 l40 -26 -22 31 c-53 74 -160 103 -217 59z"/>
<path d="M635 1892 c-141 -28 -201 -79 -178 -148 17 -52 44 -54 158 -10 18 6
95 11 190 11 131 0 179 -4 264 -23 103 -23 104 -23 130 -4 30 22 38 56 20 78
-7 9 -35 27 -62 40 -127 65 -355 89 -522 56z m380 -19 c127 -29 213 -81 201
-121 -12 -35 -43 -40 -135 -18 -68 15 -124 20 -264 20 l-177 1 5 27 c6 27 -8
67 -29 80 -14 9 5 16 79 28 77 12 229 4 320 -17z m-493 -135 c10 -6 10 -10 -2
-18 -21 -14 -33 -8 -49 24 -10 23 -11 34 -1 55 l12 26 13 -39 c8 -21 20 -43
27 -48z"/>
<path d="M1715 1899 c-22 -5 -56 -12 -75 -15 -33 -6 -106 -47 -122 -69 -16
-22 -8 -72 16 -94 26 -25 41 -23 141 18 60 24 255 19 425 -12 152 -28 173 -24
178 32 2 23 -3 37 -23 55 -28 26 -139 66 -233 85 -62 13 -249 13 -307 0z m301
-14 c163 -31 254 -74 254 -120 0 -48 -19 -51 -173 -24 -101 17 -180 24 -272
24 l-131 0 4 27 c2 16 -3 39 -13 54 -9 14 -15 27 -13 29 2 2 26 8 53 13 77 15
205 14 291 -3z m-466 -92 c0 -15 9 -37 21 -49 17 -18 18 -22 5 -27 -19 -7 -56
29 -56 54 0 25 11 49 21 49 5 0 9 -12 9 -27z"/>
<path d="M601 1164 c0 -11 3 -14 6 -6 3 7 2 16 -1 19 -3 4 -6 -2 -5 -13z"/>
<path d="M2091 1164 c0 -11 3 -14 6 -6 3 7 2 16 -1 19 -3 4 -6 -2 -5 -13z"/>
<path d="M616 1113 c3 -16 26 -69 51 -119 95 -193 262 -325 488 -385 112 -30
279 -30 390 0 168 45 318 137 413 254 54 67 115 186 126 247 4 24 -1 16 -18
-26 -82 -207 -252 -353 -485 -416 -62 -17 -105 -21 -231 -21 -140 0 -164 2
-245 27 -121 37 -213 88 -296 164 -71 66 -143 172 -174 255 -20 52 -29 62 -19
20z"/>
</g>
</svg>
